<?xml version="1.0" encoding="UTF-8" standalone="no"?>
<!DOCTYPE svg PUBLIC "-//W3C//DTD SVG 1.1//EN"
 "http://www.w3.org/Graphics/SVG/1.1/DTD/svg11.dtd">
<!-- Generated by graphviz version 5.0.0 (20220707.1540)
 -->
<!-- Title: dependencies Pages: 1 -->
<svg height="247pt" viewBox="0.00 0.00 302.00 246.80"
 width="302pt" xmlns="http://www.w3.org/2000/svg" xmlns:xlink="http://www.w3.org/1999/xlink">
<g class="graph" id="graph0" transform="scale(1 1) rotate(0) translate(4 242.8)">
<title>dependencies</title>
<polygon fill="white" points="-4,4 -4,-242.8 298,-242.8 298,4 -4,4" stroke="transparent"/>
<text font-family="sans-serif" font-size="14.00" text-anchor="middle" x="147" y="-8.2">dependencies</text>
<g class="cluster" id="clust1">
<title>cluster_AppModule</title>
<polygon fill="none" points="8,-32.8 8,-230.8 286,-230.8 286,-32.8 8,-32.8" stroke="black" stroke-dasharray="1,5"/>
</g>
<g class="cluster" id="clust7">
<title>cluster_AppModule_bootstrap</title>
<polygon fill="none" points="88,-170.8 88,-222.8 212,-222.8 212,-170.8 88,-170.8" stroke="black"/>
</g>
<g class="cluster" id="clust2">
<title>cluster_AppModule_declarations</title>
<polygon fill="none" points="16,-40.8 16,-92.8 278,-92.8 278,-40.8 16,-40.8" stroke="black"/>
</g>
<!-- AppComponent -->
<g class="node" id="node1">
<title>AppComponent</title>
<polygon fill="#ffffb3" points="269.94,-84.8 164.06,-84.8 164.06,-48.8 269.94,-48.8 269.94,-84.8" stroke="black"/>
<text font-family="Times,serif" font-size="14.00" text-anchor="middle" x="217" y="-62.6">AppComponent</text>
</g>
<!-- AppModule -->
<g class="node" id="node3">
<title>AppModule</title>
<polygon fill="#8dd3c7" points="191.66,-149.8 188.66,-153.8 167.66,-153.8 164.66,-149.8 108.34,-149.8 108.34,-113.8 191.66,-113.8 191.66,-149.8" stroke="black"/>
<text font-family="Times,serif" font-size="14.00" text-anchor="middle" x="150" y="-127.6">AppModule</text>
</g>
<!-- AppComponent&#45;&gt;AppModule -->
<g class="edge" id="edge1">
<title>AppComponent&#45;&gt;AppModule</title>
<path d="M178.06,-84.91C178.06,-84.91 178.06,-103.79 178.06,-103.79" fill="none" stroke="black"/>
<polygon fill="black" points="174.56,-103.79 178.06,-113.79 181.56,-103.79 174.56,-103.79" stroke="black"/>
</g>
<!-- NavbarComponent -->
<g class="node" id="node2">
<title>NavbarComponent</title>
<polygon fill="#ffffb3" points="146.03,-84.8 23.97,-84.8 23.97,-48.8 146.03,-48.8 146.03,-84.8" stroke="black"/>
<text font-family="Times,serif" font-size="14.00" text-anchor="middle" x="85" y="-62.6">NavbarComponent</text>
</g>
<!-- NavbarComponent&#45;&gt;AppModule -->
<g class="edge" id="edge2">
<title>NavbarComponent&#45;&gt;AppModule</title>
<path d="M127.22,-84.91C127.22,-84.91 127.22,-103.79 127.22,-103.79" fill="none" stroke="black"/>
<polygon fill="black" points="123.72,-103.79 127.22,-113.79 130.72,-103.79 123.72,-103.79" stroke="black"/>
</g>
<!-- AppComponent  -->
<g class="node" id="node4">
<title>AppComponent </title>
<polygon fill="#80b1d3" points="204.44,-214.8 95.56,-214.8 95.56,-178.8 204.44,-178.8 204.44,-214.8" stroke="black"/>
<text font-family="Times,serif" font-size="14.00" text-anchor="middle" x="150" y="-192.6">AppComponent </text>
</g>
<!-- AppModule&#45;&gt;AppComponent  -->
<g class="edge" id="edge3">
<title>AppModule&#45;&gt;AppComponent </title>
<path d="M150,-149.91C150,-149.91 150,-168.79 150,-168.79" fill="none" stroke="black" stroke-dasharray="1,5"/>
<polygon fill="black" points="146.5,-168.79 150,-178.79 153.5,-168.79 146.5,-168.79" stroke="black"/>
</g>
</g>
</svg>
