<?xml version="1.0" encoding="UTF-8" standalone="no"?>
<!DOCTYPE svg PUBLIC "-//W3C//DTD SVG 1.1//EN"
 "http://www.w3.org/Graphics/SVG/1.1/DTD/svg11.dtd">
<!-- Generated by graphviz version 5.0.0 (20220707.1540)
 -->
<!-- Title: dependencies Pages: 1 -->
<svg height="247pt" viewBox="0.00 0.00 517.00 246.80"
     width="517pt" xmlns="http://www.w3.org/2000/svg">
<g class="graph" id="graph0" transform="scale(1 1) rotate(0) translate(4 242.8)">
<title>dependencies</title>
<polygon fill="white" points="-4,4 -4,-242.8 513,-242.8 513,4 -4,4" stroke="transparent"/>
<text font-family="sans-serif" font-size="14.00" text-anchor="middle" x="254.5" y="-8.2">dependencies</text>
<g class="cluster" id="clust1">
<title>cluster_AppModule</title>
<polygon fill="none" points="8,-32.8 8,-230.8 501,-230.8 501,-32.8 8,-32.8" stroke="black" stroke-dasharray="1,5"/>
</g>
<g class="cluster" id="clust2">
<title>cluster_AppModule_declarations</title>
<polygon fill="none" points="168,-40.8 168,-92.8 493,-92.8 493,-40.8 168,-40.8" stroke="black"/>
</g>
<g class="cluster" id="clust5">
<title>cluster_AppModule_imports</title>
<polygon fill="none" points="16,-40.8 16,-92.8 160,-92.8 160,-40.8 16,-40.8" stroke="black"/>
</g>
<g class="cluster" id="clust7">
<title>cluster_AppModule_bootstrap</title>
<polygon fill="none" points="207,-170.8 207,-222.8 331,-222.8 331,-170.8 207,-170.8" stroke="black"/>
</g>
<!-- AppComponent -->
<g class="node" id="node1">
<title>AppComponent</title>
<polygon fill="#ffffb3" points="484.94,-84.8 379.06,-84.8 379.06,-48.8 484.94,-48.8 484.94,-84.8" stroke="black"/>
<text font-family="Times,serif" font-size="14.00" text-anchor="middle" x="432" y="-62.6">AppComponent</text>
</g>
<!-- AppModule -->
<g class="node" id="node3">
<title>AppModule</title>
<polygon fill="#8dd3c7" points="310.66,-149.8 307.66,-153.8 286.66,-153.8 283.66,-149.8 227.34,-149.8 227.34,-113.8 310.66,-113.8 310.66,-149.8" stroke="black"/>
<text font-family="Times,serif" font-size="14.00" text-anchor="middle" x="269" y="-127.6">AppModule</text>
</g>
<!-- AppComponent&#45;&gt;AppModule -->
<g class="edge" id="edge1">
<title>AppComponent&#45;&gt;AppModule</title>
<path d="M432,-84.91C432,-104.14 432,-131.8 432,-131.8 432,-131.8 320.98,-131.8 320.98,-131.8" fill="none" stroke="black"/>
<polygon fill="black" points="320.98,-128.3 310.98,-131.8 320.98,-135.3 320.98,-128.3" stroke="black"/>
</g>
<!-- EmployeeAddEditComponent -->
<g class="node" id="node2">
<title>EmployeeAddEditComponent</title>
<polygon fill="#ffffb3" points="361.53,-84.8 176.47,-84.8 176.47,-48.8 361.53,-48.8 361.53,-84.8" stroke="black"/>
<text font-family="Times,serif" font-size="14.00" text-anchor="middle" x="269" y="-62.6">EmployeeAddEditComponent</text>
</g>
<!-- EmployeeAddEditComponent&#45;&gt;AppModule -->
<g class="edge" id="edge2">
<title>EmployeeAddEditComponent&#45;&gt;AppModule</title>
<path d="M269,-84.91C269,-84.91 269,-103.79 269,-103.79" fill="none" stroke="black"/>
<polygon fill="black" points="265.5,-103.79 269,-113.79 272.5,-103.79 265.5,-103.79" stroke="black"/>
</g>
<!-- AppComponent  -->
<g class="node" id="node5">
<title>AppComponent </title>
<polygon fill="#80b1d3" points="323.44,-214.8 214.56,-214.8 214.56,-178.8 323.44,-178.8 323.44,-214.8" stroke="black"/>
<text font-family="Times,serif" font-size="14.00" text-anchor="middle" x="269" y="-192.6">AppComponent </text>
</g>
<!-- AppModule&#45;&gt;AppComponent  -->
<g class="edge" id="edge4">
<title>AppModule&#45;&gt;AppComponent </title>
<path d="M269,-149.91C269,-149.91 269,-168.79 269,-168.79" fill="none" stroke="black" stroke-dasharray="1,5"/>
<polygon fill="black" points="265.5,-168.79 269,-178.79 272.5,-168.79 265.5,-168.79" stroke="black"/>
</g>
<!-- AppRoutingModule -->
<g class="node" id="node4">
<title>AppRoutingModule</title>
<polygon fill="#8dd3c7" points="152.28,-84.8 149.28,-88.8 128.28,-88.8 125.28,-84.8 23.72,-84.8 23.72,-48.8 152.28,-48.8 152.28,-84.8" stroke="black"/>
<text font-family="Times,serif" font-size="14.00" text-anchor="middle" x="88" y="-62.6">AppRoutingModule</text>
</g>
<!-- AppRoutingModule&#45;&gt;AppModule -->
<g class="edge" id="edge3">
<title>AppRoutingModule&#45;&gt;AppModule</title>
<path d="M88,-84.91C88,-104.14 88,-131.8 88,-131.8 88,-131.8 217.02,-131.8 217.02,-131.8" fill="none" stroke="black"/>
<polygon fill="black" points="217.02,-135.3 227.02,-131.8 217.02,-128.3 217.02,-135.3" stroke="black"/>
</g>
</g>
</svg>
