<?xml version="1.0" encoding="UTF-8" standalone="no"?>
<!DOCTYPE svg PUBLIC "-//W3C//DTD SVG 1.1//EN"
 "http://www.w3.org/Graphics/SVG/1.1/DTD/svg11.dtd">
<!-- Generated by graphviz version 5.0.0 (20220707.1540)
 -->
<!-- Title: dependencies Pages: 1 -->
<svg width="673pt" height="247pt"
 viewBox="0.00 0.00 673.00 246.80" xmlns="http://www.w3.org/2000/svg" xmlns:xlink="http://www.w3.org/1999/xlink">
<g id="graph0" class="graph" transform="scale(1 1) rotate(0) translate(4 242.8)">
<title>dependencies</title>
<polygon fill="white" stroke="transparent" points="-4,4 -4,-242.8 669,-242.8 669,4 -4,4"/>
<text text-anchor="middle" x="332.5" y="-8.2" font-family="sans-serif" font-size="14.00">dependencies</text>
<g id="clust1" class="cluster">
<title>cluster_AppModule</title>
<polygon fill="none" stroke="black" stroke-dasharray="1,5" points="8,-32.8 8,-230.8 657,-230.8 657,-32.8 8,-32.8"/>
</g>
<g id="clust8" class="cluster">
<title>cluster_AppModule_bootstrap</title>
<polygon fill="none" stroke="black" points="303,-170.8 303,-222.8 427,-222.8 427,-170.8 303,-170.8"/>
</g>
<g id="clust9" class="cluster">
<title>cluster_AppModule_providers</title>
<polygon fill="none" stroke="black" points="511,-40.8 511,-92.8 649,-92.8 649,-40.8 511,-40.8"/>
</g>
<g id="clust2" class="cluster">
<title>cluster_AppModule_declarations</title>
<polygon fill="none" stroke="black" points="16,-40.8 16,-92.8 503,-92.8 503,-40.8 16,-40.8"/>
</g>
<!-- AppComponent -->
<g id="node1" class="node">
<title>AppComponent</title>
<polygon fill="#ffffb3" stroke="black" points="494.94,-84.8 389.06,-84.8 389.06,-48.8 494.94,-48.8 494.94,-84.8"/>
<text text-anchor="middle" x="442" y="-62.6" font-family="Times,serif" font-size="14.00">AppComponent</text>
</g>
<!-- AppModule -->
<g id="node4" class="node">
<title>AppModule</title>
<polygon fill="#8dd3c7" stroke="black" points="406.66,-149.8 403.66,-153.8 382.66,-153.8 379.66,-149.8 323.34,-149.8 323.34,-113.8 406.66,-113.8 406.66,-149.8"/>
<text text-anchor="middle" x="365" y="-127.6" font-family="Times,serif" font-size="14.00">AppModule</text>
</g>
<!-- AppComponent&#45;&gt;AppModule -->
<g id="edge1" class="edge">
<title>AppComponent&#45;&gt;AppModule</title>
<path fill="none" stroke="black" d="M398.06,-84.91C398.06,-84.91 398.06,-103.79 398.06,-103.79"/>
<polygon fill="black" stroke="black" points="394.56,-103.79 398.06,-113.79 401.56,-103.79 394.56,-103.79"/>
</g>
<!-- HorizontalTreeComponent -->
<g id="node2" class="node">
<title>HorizontalTreeComponent</title>
<polygon fill="#ffffb3" stroke="black" points="371.34,-84.8 204.66,-84.8 204.66,-48.8 371.34,-48.8 371.34,-84.8"/>
<text text-anchor="middle" x="288" y="-62.6" font-family="Times,serif" font-size="14.00">HorizontalTreeComponent</text>
</g>
<!-- HorizontalTreeComponent&#45;&gt;AppModule -->
<g id="edge2" class="edge">
<title>HorizontalTreeComponent&#45;&gt;AppModule</title>
<path fill="none" stroke="black" d="M347.29,-84.91C347.29,-84.91 347.29,-103.79 347.29,-103.79"/>
<polygon fill="black" stroke="black" points="343.8,-103.79 347.29,-113.79 350.8,-103.79 343.8,-103.79"/>
</g>
<!-- RenamePopupComponent -->
<g id="node3" class="node">
<title>RenamePopupComponent</title>
<polygon fill="#ffffb3" stroke="black" points="186.49,-84.8 23.51,-84.8 23.51,-48.8 186.49,-48.8 186.49,-84.8"/>
<text text-anchor="middle" x="105" y="-62.6" font-family="Times,serif" font-size="14.00">RenamePopupComponent</text>
</g>
<!-- RenamePopupComponent&#45;&gt;AppModule -->
<g id="edge3" class="edge">
<title>RenamePopupComponent&#45;&gt;AppModule</title>
<path fill="none" stroke="black" d="M105,-84.91C105,-104.14 105,-131.8 105,-131.8 105,-131.8 313.23,-131.8 313.23,-131.8"/>
<polygon fill="black" stroke="black" points="313.23,-135.3 323.23,-131.8 313.23,-128.3 313.23,-135.3"/>
</g>
<!-- AppComponent  -->
<g id="node5" class="node">
<title>AppComponent </title>
<polygon fill="#80b1d3" stroke="black" points="419.44,-214.8 310.56,-214.8 310.56,-178.8 419.44,-178.8 419.44,-214.8"/>
<text text-anchor="middle" x="365" y="-192.6" font-family="Times,serif" font-size="14.00">AppComponent </text>
</g>
<!-- AppModule&#45;&gt;AppComponent  -->
<g id="edge4" class="edge">
<title>AppModule&#45;&gt;AppComponent </title>
<path fill="none" stroke="black" stroke-dasharray="1,5" d="M365,-149.91C365,-149.91 365,-168.79 365,-168.79"/>
<polygon fill="black" stroke="black" points="361.5,-168.79 365,-178.79 368.5,-168.79 361.5,-168.79"/>
</g>
<!-- NodeService -->
<g id="node6" class="node">
<title>NodeService</title>
<ellipse fill="#fdb462" stroke="black" cx="580" cy="-66.8" rx="60.82" ry="18"/>
<text text-anchor="middle" x="580" y="-62.6" font-family="Times,serif" font-size="14.00">NodeService</text>
</g>
<!-- NodeService&#45;&gt;AppModule -->
<g id="edge5" class="edge">
<title>NodeService&#45;&gt;AppModule</title>
<path fill="none" stroke="black" d="M580,-84.91C580,-104.14 580,-131.8 580,-131.8 580,-131.8 416.71,-131.8 416.71,-131.8"/>
<polygon fill="black" stroke="black" points="416.71,-128.3 406.71,-131.8 416.71,-135.3 416.71,-128.3"/>
</g>
</g>
</svg>
