<?xml version="1.0" encoding="UTF-8" standalone="no"?>
<!DOCTYPE svg PUBLIC "-//W3C//DTD SVG 1.1//EN"
 "http://www.w3.org/Graphics/SVG/1.1/DTD/svg11.dtd">
<!-- Generated by graphviz version 5.0.0 (20220707.1540)
 -->
<!-- Title: dependencies Pages: 1 -->
<svg height="247pt" viewBox="0.00 0.00 450.00 246.80"
 width="450pt" xmlns="http://www.w3.org/2000/svg" xmlns:xlink="http://www.w3.org/1999/xlink">
<g class="graph" id="graph0" transform="scale(1 1) rotate(0) translate(4 242.8)">
<title>dependencies</title>
<polygon fill="white" points="-4,4 -4,-242.8 446,-242.8 446,4 -4,4" stroke="transparent"/>
<text font-family="sans-serif" font-size="14.00" text-anchor="middle" x="221" y="-8.2">dependencies</text>
<g class="cluster" id="clust1">
<title>cluster_AppModule</title>
<polygon fill="none" points="8,-32.8 8,-230.8 434,-230.8 434,-32.8 8,-32.8" stroke="black" stroke-dasharray="1,5"/>
</g>
<g class="cluster" id="clust2">
<title>cluster_AppModule_declarations</title>
<polygon fill="none" points="16,-40.8 16,-92.8 426,-92.8 426,-40.8 16,-40.8" stroke="black"/>
</g>
<g class="cluster" id="clust8">
<title>cluster_AppModule_bootstrap</title>
<polygon fill="none" points="171,-170.8 171,-222.8 295,-222.8 295,-170.8 171,-170.8" stroke="black"/>
</g>
<!-- AppComponent -->
<g class="node" id="node1">
<title>AppComponent</title>
<polygon fill="#ffffb3" points="417.94,-84.8 312.06,-84.8 312.06,-48.8 417.94,-48.8 417.94,-84.8" stroke="black"/>
<text font-family="Times,serif" font-size="14.00" text-anchor="middle" x="365" y="-62.6">AppComponent</text>
</g>
<!-- AppModule -->
<g class="node" id="node4">
<title>AppModule</title>
<polygon fill="#8dd3c7" points="274.66,-149.8 271.66,-153.8 250.66,-153.8 247.66,-149.8 191.34,-149.8 191.34,-113.8 274.66,-113.8 274.66,-149.8" stroke="black"/>
<text font-family="Times,serif" font-size="14.00" text-anchor="middle" x="233" y="-127.6">AppModule</text>
</g>
<!-- AppComponent&#45;&gt;AppModule -->
<g class="edge" id="edge1">
<title>AppComponent&#45;&gt;AppModule</title>
<path d="M365,-84.91C365,-104.14 365,-131.8 365,-131.8 365,-131.8 284.77,-131.8 284.77,-131.8" fill="none" stroke="black"/>
<polygon fill="black" points="284.77,-128.3 274.77,-131.8 284.77,-135.3 284.77,-128.3" stroke="black"/>
</g>
<!-- NavbarComponent -->
<g class="node" id="node2">
<title>NavbarComponent</title>
<polygon fill="#ffffb3" points="294.03,-84.8 171.97,-84.8 171.97,-48.8 294.03,-48.8 294.03,-84.8" stroke="black"/>
<text font-family="Times,serif" font-size="14.00" text-anchor="middle" x="233" y="-62.6">NavbarComponent</text>
</g>
<!-- NavbarComponent&#45;&gt;AppModule -->
<g class="edge" id="edge2">
<title>NavbarComponent&#45;&gt;AppModule</title>
<path d="M233,-84.91C233,-84.91 233,-103.79 233,-103.79" fill="none" stroke="black"/>
<polygon fill="black" points="229.5,-103.79 233,-113.79 236.5,-103.79 229.5,-103.79" stroke="black"/>
</g>
<!-- Section1Component -->
<g class="node" id="node3">
<title>Section1Component</title>
<polygon fill="#ffffb3" points="154.32,-84.8 23.68,-84.8 23.68,-48.8 154.32,-48.8 154.32,-84.8" stroke="black"/>
<text font-family="Times,serif" font-size="14.00" text-anchor="middle" x="89" y="-62.6">Section1Component</text>
</g>
<!-- Section1Component&#45;&gt;AppModule -->
<g class="edge" id="edge3">
<title>Section1Component&#45;&gt;AppModule</title>
<path d="M89,-84.91C89,-104.14 89,-131.8 89,-131.8 89,-131.8 180.96,-131.8 180.96,-131.8" fill="none" stroke="black"/>
<polygon fill="black" points="180.96,-135.3 190.96,-131.8 180.96,-128.3 180.96,-135.3" stroke="black"/>
</g>
<!-- AppComponent  -->
<g class="node" id="node5">
<title>AppComponent </title>
<polygon fill="#80b1d3" points="287.44,-214.8 178.56,-214.8 178.56,-178.8 287.44,-178.8 287.44,-214.8" stroke="black"/>
<text font-family="Times,serif" font-size="14.00" text-anchor="middle" x="233" y="-192.6">AppComponent </text>
</g>
<!-- AppModule&#45;&gt;AppComponent  -->
<g class="edge" id="edge4">
<title>AppModule&#45;&gt;AppComponent </title>
<path d="M233,-149.91C233,-149.91 233,-168.79 233,-168.79" fill="none" stroke="black" stroke-dasharray="1,5"/>
<polygon fill="black" points="229.5,-168.79 233,-178.79 236.5,-168.79 229.5,-168.79" stroke="black"/>
</g>
</g>
</svg>
