<?xml version="1.0" encoding="UTF-8" standalone="no"?>
<!DOCTYPE svg PUBLIC "-//W3C//DTD SVG 1.1//EN"
 "http://www.w3.org/Graphics/SVG/1.1/DTD/svg11.dtd">
<!-- Generated by graphviz version 5.0.0 (20220707.1540)
 -->
<!-- Title: dependencies Pages: 1 -->
<svg width="673pt" height="247pt"
 viewBox="0.00 0.00 673.00 246.80" xmlns="http://www.w3.org/2000/svg" xmlns:xlink="http://www.w3.org/1999/xlink">
<g id="graph0" class="graph" transform="scale(1 1) rotate(0) translate(4 242.8)">
<title>dependencies</title>
<polygon fill="white" stroke="transparent" points="-4,4 -4,-242.8 669,-242.8 669,4 -4,4"/>
<text text-anchor="middle" x="332.5" y="-8.2" font-family="sans-serif" font-size="14.00">dependencies</text>
<g id="clust1" class="cluster">
<title>cluster_AppModule</title>
<polygon fill="none" stroke="black" stroke-dasharray="1,5" points="8,-32.8 8,-230.8 657,-230.8 657,-32.8 8,-32.8"/>
</g>
<g id="clust2" class="cluster">
<title>cluster_AppModule_declarations</title>
<polygon fill="none" stroke="black" points="162,-40.8 162,-92.8 649,-92.8 649,-40.8 162,-40.8"/>
</g>
<g id="clust8" class="cluster">
<title>cluster_AppModule_bootstrap</title>
<polygon fill="none" stroke="black" points="280,-170.8 280,-222.8 404,-222.8 404,-170.8 280,-170.8"/>
</g>
<g id="clust9" class="cluster">
<title>cluster_AppModule_providers</title>
<polygon fill="none" stroke="black" points="16,-40.8 16,-92.8 154,-92.8 154,-40.8 16,-40.8"/>
</g>
<!-- AppComponent -->
<g id="node1" class="node">
<title>AppComponent</title>
<polygon fill="#ffffb3" stroke="black" points="640.94,-84.8 535.06,-84.8 535.06,-48.8 640.94,-48.8 640.94,-84.8"/>
<text text-anchor="middle" x="588" y="-62.6" font-family="Times,serif" font-size="14.00">AppComponent</text>
</g>
<!-- AppModule -->
<g id="node4" class="node">
<title>AppModule</title>
<polygon fill="#8dd3c7" stroke="black" points="383.66,-149.8 380.66,-153.8 359.66,-153.8 356.66,-149.8 300.34,-149.8 300.34,-113.8 383.66,-113.8 383.66,-149.8"/>
<text text-anchor="middle" x="342" y="-127.6" font-family="Times,serif" font-size="14.00">AppModule</text>
</g>
<!-- AppComponent&#45;&gt;AppModule -->
<g id="edge1" class="edge">
<title>AppComponent&#45;&gt;AppModule</title>
<path fill="none" stroke="black" d="M588,-84.91C588,-104.14 588,-131.8 588,-131.8 588,-131.8 393.73,-131.8 393.73,-131.8"/>
<polygon fill="black" stroke="black" points="393.73,-128.3 383.73,-131.8 393.73,-135.3 393.73,-128.3"/>
</g>
<!-- HorizontalTreeComponent -->
<g id="node2" class="node">
<title>HorizontalTreeComponent</title>
<polygon fill="#ffffb3" stroke="black" points="517.34,-84.8 350.66,-84.8 350.66,-48.8 517.34,-48.8 517.34,-84.8"/>
<text text-anchor="middle" x="434" y="-62.6" font-family="Times,serif" font-size="14.00">HorizontalTreeComponent</text>
</g>
<!-- HorizontalTreeComponent&#45;&gt;AppModule -->
<g id="edge2" class="edge">
<title>HorizontalTreeComponent&#45;&gt;AppModule</title>
<path fill="none" stroke="black" d="M367.21,-84.91C367.21,-84.91 367.21,-103.79 367.21,-103.79"/>
<polygon fill="black" stroke="black" points="363.71,-103.79 367.21,-113.79 370.71,-103.79 363.71,-103.79"/>
</g>
<!-- RenamePopupComponent -->
<g id="node3" class="node">
<title>RenamePopupComponent</title>
<polygon fill="#ffffb3" stroke="black" points="332.49,-84.8 169.51,-84.8 169.51,-48.8 332.49,-48.8 332.49,-84.8"/>
<text text-anchor="middle" x="251" y="-62.6" font-family="Times,serif" font-size="14.00">RenamePopupComponent</text>
</g>
<!-- RenamePopupComponent&#45;&gt;AppModule -->
<g id="edge3" class="edge">
<title>RenamePopupComponent&#45;&gt;AppModule</title>
<path fill="none" stroke="black" d="M316.33,-84.91C316.33,-84.91 316.33,-103.79 316.33,-103.79"/>
<polygon fill="black" stroke="black" points="312.83,-103.79 316.33,-113.79 319.83,-103.79 312.83,-103.79"/>
</g>
<!-- AppComponent  -->
<g id="node5" class="node">
<title>AppComponent </title>
<polygon fill="#80b1d3" stroke="black" points="396.44,-214.8 287.56,-214.8 287.56,-178.8 396.44,-178.8 396.44,-214.8"/>
<text text-anchor="middle" x="342" y="-192.6" font-family="Times,serif" font-size="14.00">AppComponent </text>
</g>
<!-- AppModule&#45;&gt;AppComponent  -->
<g id="edge4" class="edge">
<title>AppModule&#45;&gt;AppComponent </title>
<path fill="none" stroke="black" stroke-dasharray="1,5" d="M342,-149.91C342,-149.91 342,-168.79 342,-168.79"/>
<polygon fill="black" stroke="black" points="338.5,-168.79 342,-178.79 345.5,-168.79 338.5,-168.79"/>
</g>
<!-- NodeService -->
<g id="node6" class="node">
<title>NodeService</title>
<ellipse fill="#fdb462" stroke="black" cx="85" cy="-66.8" rx="60.82" ry="18"/>
<text text-anchor="middle" x="85" y="-62.6" font-family="Times,serif" font-size="14.00">NodeService</text>
</g>
<!-- NodeService&#45;&gt;AppModule -->
<g id="edge5" class="edge">
<title>NodeService&#45;&gt;AppModule</title>
<path fill="none" stroke="black" d="M85,-84.91C85,-104.14 85,-131.8 85,-131.8 85,-131.8 290.14,-131.8 290.14,-131.8"/>
<polygon fill="black" stroke="black" points="290.14,-135.3 300.14,-131.8 290.14,-128.3 290.14,-135.3"/>
</g>
</g>
</svg>
